<svg width="1255" height="264" viewBox="0 0 1255 264" fill="none" xmlns="http://www.w3.org/2000/svg">
<path opacity="0.0946098" d="M1255 188.249V75.7507C1255 68.7629 1251.3 62.3203 1245.28 58.8511L1148.22 2.60184C1142.2 -0.86728 1134.8 -0.86728 1128.78 2.60184L1031.72 58.8511C1025.7 62.3203 1022 68.8125 1022 75.7507V188.249C1022 195.237 1025.7 201.68 1031.72 205.149L1128.78 261.398C1134.8 264.867 1142.2 264.867 1148.22 261.398L1245.28 205.149C1251.25 201.68 1255 195.188 1255 188.249Z" fill="url(#paint0_linear_588_2)"/>
<path opacity="0.0946098" d="M0 98.8716V152.128C0 155.445 1.77025 158.464 4.57311 160.147L50.4023 186.775C53.2544 188.408 56.7456 188.408 59.5977 186.775L105.427 160.147C108.279 158.513 110 155.445 110 152.128V98.8716C110 95.5554 108.23 92.5362 105.427 90.8534L59.5977 64.225C56.7456 62.5917 53.2544 62.5917 50.4023 64.225L4.57311 90.8534C1.77025 92.4867 0 95.5554 0 98.8716Z" fill="url(#paint1_linear_588_2)"/>
<defs>
<linearGradient id="paint0_linear_588_2" x1="1138.45" y1="-0.0893546" x2="1138.45" y2="264.023" gradientUnits="userSpaceOnUse">
<stop stop-color="#D4145A"/>
<stop offset="1" stop-color="#2E3192"/>
</linearGradient>
<linearGradient id="paint1_linear_588_2" x1="55.015" y1="188" x2="55.015" y2="62.9818" gradientUnits="userSpaceOnUse">
<stop stop-color="#D4145A"/>
<stop offset="1" stop-color="#2E3192"/>
</linearGradient>
</defs>
</svg>
